<svg xmlns="http://www.w3.org/2000/svg" width="512" height="512" fill="none" viewBox="0 0 512 512" id="juno"><g clip-path="url(#clip0_84_15699)"><rect width="512" height="512" fill="#5234F8" rx="60"></rect><path fill="#fff" d="M256.43 412.001C237.158 411.912 188.004 407.4 146.961 367.237C103.39 324.709 99.7998 271.151 99.7998 255.789V255.665C100.05 236.433 105.039 187.422 145.651 146.563C186.694 105.376 236.314 100.275 255.749 100.003C256.779 99.9741 257.804 100.156 258.761 100.538C259.718 100.92 260.586 101.494 261.313 102.224C262.046 102.94 262.629 103.795 263.026 104.739C263.424 105.683 263.629 106.697 263.629 107.721V141.187C263.634 142.712 263.185 144.204 262.339 145.473C261.493 146.742 260.289 147.731 258.879 148.313C257.944 148.702 256.942 148.903 255.93 148.905C245.27 148.905 208.264 151.431 179.119 181.442C159.942 201.425 149.131 227.985 148.902 255.68C148.974 268.324 151.844 300.553 177.274 328.131C206.669 360.056 245.344 362.849 256.487 362.938C267.256 362.938 304.547 360.432 333.798 330.01C360.717 302.094 363.641 268.878 363.678 255.898V108.365C363.678 106.325 364.491 104.366 365.939 102.922C367.387 101.478 369.349 100.667 371.394 100.667H404.756C406.803 100.662 408.768 101.471 410.218 102.915C410.936 103.629 411.505 104.478 411.892 105.414C412.28 106.349 412.477 107.353 412.474 108.365V256.287C412.474 271.58 409.064 324.723 366.028 367.108C324.951 407.559 275.673 411.981 256.433 411.999L256.43 412.001ZM115.251 255.789C115.251 269.772 118.606 317.976 157.73 356.243C194.788 392.467 239.114 396.547 256.43 396.602C269.945 396.602 317.107 393.648 355.133 356.171C393.898 317.976 396.948 270.077 396.966 256.307V116.123H379.018V255.97C379.018 270.832 375.574 308.794 344.921 340.737C311.436 375.53 268.705 378.34 256.413 378.34C243.601 378.234 199.454 375.047 165.859 338.553C136.893 307.071 133.538 270.116 133.431 255.789C133.431 240.818 137.022 202.749 167.974 170.807C196.155 141.781 230.79 135.264 248.123 133.919V115.818C228.848 117.356 189.242 124.681 156.598 157.468C120.043 194.246 115.501 238.401 115.251 255.789Z"></path><path fill="#fff" d="M256.415 343.725C239.027 343.726 222.028 338.581 207.56 328.937C193.106 319.305 181.835 305.602 175.172 289.561C168.517 273.532 166.776 255.887 170.17 238.866C173.567 221.84 181.943 206.205 194.236 193.944C206.542 181.668 222.208 173.312 239.258 169.93C256.315 166.545 273.992 168.282 290.064 174.924C306.123 181.558 319.856 192.803 329.527 207.238C339.187 221.66 344.345 238.626 344.347 255.984C344.3 279.251 335.02 301.548 318.545 317.978C302.048 334.43 279.714 343.686 256.415 343.725ZM256.415 183.554C242.072 183.552 228.05 187.796 216.115 195.751C204.192 203.697 194.894 215.001 189.397 228.234C183.908 241.456 182.472 256.011 185.272 270.051C188.075 284.096 194.984 296.993 205.124 307.107C215.275 317.234 228.199 324.127 242.264 326.917C256.334 329.71 270.916 328.277 284.173 322.799C297.421 317.326 308.75 308.049 316.727 296.14C324.696 284.245 328.951 270.25 328.952 255.932C328.926 236.735 321.274 218.335 307.682 204.779C294.071 191.205 275.638 183.574 256.415 183.554Z"></path></g><defs><clipPath id="clip0_84_15699"><rect width="512" height="512" fill="#fff"></rect></clipPath></defs></svg>